<svg width="247" height="267" viewBox="0 0 247 267" fill="none" xmlns="http://www.w3.org/2000/svg">
<path d="M52.2418 214.773C52.0678 214.169 51.8233 213.634 51.5085 213.17C51.1936 212.698 50.8083 212.3 50.3526 211.977C49.9051 211.645 49.3914 211.393 48.8114 211.219C48.2397 211.045 47.6058 210.958 46.9098 210.958C45.6089 210.958 44.4654 211.281 43.4794 211.927C42.5016 212.574 41.7393 213.514 41.1924 214.749C40.6456 215.975 40.3721 217.475 40.3721 219.248C40.3721 221.021 40.6414 222.529 41.18 223.772C41.7186 225.015 42.4809 225.964 43.4669 226.618C44.453 227.265 45.6171 227.588 46.9595 227.588C48.1775 227.588 49.2174 227.372 50.0791 226.941C50.9492 226.502 51.6121 225.885 52.0678 225.089C52.5318 224.294 52.7638 223.354 52.7638 222.268L53.8576 222.43H47.2951V218.378H57.9467V221.585C57.9467 223.822 57.4744 225.744 56.5298 227.352C55.5852 228.951 54.2843 230.185 52.6271 231.055C50.9699 231.917 49.0724 232.348 46.9346 232.348C44.5483 232.348 42.4519 231.822 40.6456 230.77C38.8392 229.709 37.4306 228.205 36.4197 226.258C35.4171 224.302 34.9158 221.982 34.9158 219.298C34.9158 217.234 35.2141 215.395 35.8107 213.779C36.4156 212.155 37.2607 210.78 38.3462 209.653C39.4317 208.526 40.6953 207.668 42.137 207.08C43.5788 206.492 45.1407 206.197 46.8228 206.197C48.2645 206.197 49.6068 206.409 50.8497 206.831C52.0926 207.246 53.1947 207.834 54.1559 208.596C55.1253 209.359 55.9166 210.266 56.5298 211.318C57.1429 212.362 57.5365 213.514 57.7105 214.773H52.2418ZM67.1845 206.545V232H61.8898V206.545H67.1845ZM83.6685 223.871V212.909H88.9632V232H83.8797V228.532H83.6809C83.25 229.651 82.5333 230.55 81.5307 231.229C80.5364 231.909 79.3225 232.249 77.889 232.249C76.6129 232.249 75.4902 231.959 74.5207 231.379C73.5513 230.799 72.7931 229.974 72.2462 228.905C71.7076 227.836 71.4342 226.556 71.4259 225.065V212.909H76.7207V224.12C76.7289 225.247 77.0314 226.138 77.628 226.792C78.2246 227.447 79.0242 227.774 80.0268 227.774C80.6648 227.774 81.2614 227.629 81.8165 227.339C82.3717 227.041 82.8191 226.602 83.1589 226.022C83.5069 225.442 83.6767 224.725 83.6685 223.871ZM101.824 232.373C99.8686 232.373 98.1865 231.959 96.7779 231.13C95.3776 230.293 94.3004 229.133 93.5464 227.65C92.8006 226.167 92.4278 224.46 92.4278 222.529C92.4278 220.574 92.8048 218.858 93.5588 217.384C94.3211 215.9 95.4024 214.744 96.8028 213.916C98.2031 213.079 99.8686 212.661 101.799 212.661C103.465 212.661 104.923 212.963 106.174 213.568C107.425 214.173 108.416 215.022 109.145 216.116C109.874 217.21 110.276 218.494 110.35 219.969H105.354C105.213 219.016 104.84 218.249 104.235 217.669C103.639 217.081 102.856 216.787 101.886 216.787C101.066 216.787 100.349 217.011 99.736 217.458C99.1311 217.897 98.6588 218.539 98.3191 219.385C97.9794 220.23 97.8095 221.253 97.8095 222.455C97.8095 223.673 97.9752 224.708 98.3067 225.562C98.6464 226.415 99.1229 227.066 99.736 227.513C100.349 227.961 101.066 228.184 101.886 228.184C102.491 228.184 103.034 228.06 103.514 227.811C104.003 227.563 104.405 227.202 104.72 226.73C105.043 226.25 105.254 225.674 105.354 225.002H110.35C110.268 226.461 109.87 227.745 109.157 228.855C108.453 229.958 107.479 230.819 106.236 231.441C104.993 232.062 103.523 232.373 101.824 232.373ZM122.366 232.373C120.435 232.373 118.766 231.963 117.357 231.142C115.957 230.314 114.876 229.162 114.113 227.687C113.351 226.204 112.97 224.485 112.97 222.529C112.97 220.557 113.351 218.834 114.113 217.359C114.876 215.875 115.957 214.724 117.357 213.903C118.766 213.075 120.435 212.661 122.366 212.661C124.297 212.661 125.962 213.075 127.363 213.903C128.771 214.724 129.857 215.875 130.619 217.359C131.381 218.834 131.762 220.557 131.762 222.529C131.762 224.485 131.381 226.204 130.619 227.687C129.857 229.162 128.771 230.314 127.363 231.142C125.962 231.963 124.297 232.373 122.366 232.373ZM122.391 228.271C123.269 228.271 124.003 228.023 124.591 227.526C125.179 227.02 125.622 226.332 125.921 225.462C126.227 224.592 126.381 223.602 126.381 222.492C126.381 221.382 126.227 220.391 125.921 219.521C125.622 218.651 125.179 217.964 124.591 217.458C124.003 216.953 123.269 216.7 122.391 216.7C121.504 216.7 120.759 216.953 120.154 217.458C119.557 217.964 119.106 218.651 118.799 219.521C118.501 220.391 118.352 221.382 118.352 222.492C118.352 223.602 118.501 224.592 118.799 225.462C119.106 226.332 119.557 227.02 120.154 227.526C120.759 228.023 121.504 228.271 122.391 228.271ZM149.113 213.866C149.014 212.864 148.587 212.085 147.833 211.529C147.079 210.974 146.056 210.697 144.763 210.697C143.885 210.697 143.143 210.821 142.538 211.07C141.933 211.31 141.469 211.645 141.146 212.076C140.831 212.507 140.674 212.996 140.674 213.543C140.657 213.999 140.753 214.396 140.96 214.736C141.175 215.076 141.469 215.37 141.842 215.619C142.215 215.859 142.646 216.07 143.135 216.252C143.624 216.426 144.146 216.576 144.701 216.7L146.988 217.247C148.098 217.495 149.117 217.827 150.045 218.241C150.973 218.655 151.777 219.165 152.457 219.77C153.136 220.375 153.662 221.087 154.035 221.908C154.416 222.728 154.611 223.668 154.619 224.729C154.611 226.287 154.213 227.637 153.426 228.781C152.647 229.916 151.52 230.799 150.045 231.428C148.579 232.05 146.81 232.36 144.738 232.36C142.683 232.36 140.894 232.046 139.369 231.416C137.853 230.786 136.668 229.854 135.814 228.619C134.969 227.376 134.526 225.839 134.484 224.008H139.692C139.75 224.862 139.995 225.574 140.425 226.146C140.865 226.709 141.449 227.136 142.178 227.426C142.915 227.708 143.748 227.849 144.676 227.849C145.588 227.849 146.379 227.716 147.05 227.451C147.729 227.186 148.256 226.817 148.629 226.345C149.001 225.873 149.188 225.33 149.188 224.717C149.188 224.145 149.018 223.664 148.678 223.275C148.347 222.885 147.858 222.554 147.212 222.281C146.574 222.007 145.791 221.759 144.863 221.535L142.091 220.839C139.945 220.317 138.25 219.501 137.007 218.39C135.765 217.28 135.147 215.784 135.155 213.903C135.147 212.362 135.557 211.016 136.386 209.864C137.223 208.712 138.37 207.813 139.829 207.167C141.287 206.521 142.944 206.197 144.8 206.197C146.69 206.197 148.338 206.521 149.747 207.167C151.164 207.813 152.266 208.712 153.053 209.864C153.84 211.016 154.246 212.35 154.271 213.866H149.113ZM161.409 239.159C160.737 239.159 160.108 239.105 159.519 238.998C158.939 238.898 158.459 238.77 158.078 238.612L159.271 234.66C159.892 234.85 160.452 234.954 160.949 234.971C161.454 234.987 161.889 234.871 162.254 234.623C162.627 234.374 162.929 233.951 163.161 233.355L163.472 232.547L156.623 212.909H162.192L166.144 226.929H166.343L170.333 212.909H175.938L168.518 234.063C168.162 235.091 167.677 235.986 167.064 236.748C166.459 237.518 165.692 238.111 164.764 238.525C163.836 238.948 162.718 239.159 161.409 239.159ZM183.942 220.963V232H178.648V212.909H183.694V216.277H183.917C184.34 215.167 185.049 214.289 186.043 213.642C187.037 212.988 188.243 212.661 189.66 212.661C190.985 212.661 192.141 212.951 193.127 213.531C194.113 214.111 194.88 214.939 195.427 216.016C195.974 217.085 196.247 218.361 196.247 219.844V232H190.952V220.789C190.961 219.621 190.662 218.709 190.057 218.055C189.453 217.392 188.62 217.06 187.559 217.06C186.847 217.06 186.217 217.214 185.67 217.52C185.131 217.827 184.709 218.274 184.402 218.863C184.104 219.443 183.951 220.143 183.942 220.963ZM209.046 232.373C207.09 232.373 205.408 231.959 204 231.13C202.599 230.293 201.522 229.133 200.768 227.65C200.022 226.167 199.649 224.46 199.649 222.529C199.649 220.574 200.026 218.858 200.78 217.384C201.543 215.9 202.624 214.744 204.024 213.916C205.425 213.079 207.09 212.661 209.021 212.661C210.686 212.661 212.145 212.963 213.396 213.568C214.647 214.173 215.637 215.022 216.366 216.116C217.096 217.21 217.497 218.494 217.572 219.969H212.576C212.435 219.016 212.062 218.249 211.457 217.669C210.86 217.081 210.077 216.787 209.108 216.787C208.288 216.787 207.571 217.011 206.958 217.458C206.353 217.897 205.881 218.539 205.541 219.385C205.201 220.23 205.031 221.253 205.031 222.455C205.031 223.673 205.197 224.708 205.528 225.562C205.868 226.415 206.345 227.066 206.958 227.513C207.571 227.961 208.288 228.184 209.108 228.184C209.713 228.184 210.256 228.06 210.736 227.811C211.225 227.563 211.627 227.202 211.942 226.73C212.265 226.25 212.476 225.674 212.576 225.002H217.572C217.489 226.461 217.091 227.745 216.379 228.855C215.675 229.958 214.701 230.819 213.458 231.441C212.215 232.062 210.744 232.373 209.046 232.373Z" fill="white"/>
<path d="M52.6558 45.5752C43.4907 48.4394 35.3757 56.3634 32.6071 64.8602C31.7478 67.7243 31.2705 70.2066 31.5569 70.493C31.8433 70.7794 33.9437 70.302 36.2349 69.4428C45.8774 65.9104 59.1478 68.3926 65.3534 74.8846C68.6948 78.3215 69.4586 78.3215 72.8 74.8846C79.1965 68.2017 93.9944 65.7195 103.255 69.8247C109.461 72.5933 115.762 78.7989 118.244 84.5271C122.731 95.0288 118.721 110.304 107.551 125.102C105.069 128.443 103.351 131.117 103.732 131.117C105.069 131.117 115.666 124.434 119.962 120.901C122.254 119.087 126.263 114.791 129.032 111.45L133.901 105.34H142.589H151.372L154.523 95.0288C159.678 78.0351 158.819 78.2261 163.974 92.9285C168.939 107.058 170.848 109.254 172.566 102.762C178.008 81.1856 182.113 66.9606 182.495 68.1062C182.782 68.87 183.641 73.3571 184.405 78.1306C189.083 106.008 192.138 122.238 192.902 123.193C194.429 125.102 195.384 123.861 199.871 114.314L204.072 105.34H212.759C220.683 105.34 221.352 105.244 221.352 103.43C221.352 101.616 220.683 101.521 211.709 101.521H202.162L198.821 108.777C196.911 112.786 195.193 115.841 195.002 115.555C194.716 115.269 192.138 101.616 189.274 85.1954C186.314 68.679 183.832 55.1223 183.641 54.8359C181.923 53.2129 180.109 57.9864 175.621 76.1257C172.853 87.4867 170.275 96.7473 169.893 96.7473C169.511 96.7473 167.316 91.401 164.929 84.8135C162.065 76.5076 160.251 72.8797 159.296 72.8797C158.15 72.8797 156.623 76.6985 153.472 86.9139L149.176 101.043L142.684 101.33L136.288 101.616L140.107 94.6469C149.845 76.794 149.081 63.2372 137.72 52.9265C124.354 40.7063 106.119 41.47 93.9944 54.9313L88.9345 60.4686L86.2613 56.6498C79.483 46.9118 64.3987 41.9474 52.6558 45.5752Z" fill="#F9F9F9"/>
<path d="M39.0034 72.1159C35.5665 73.0706 30.3157 76.603 27.2606 80.0399C21.8188 86.15 20.3868 95.888 23.7282 104.289L25.5421 109.063L23.4418 109.731C19.9094 110.781 18 113.073 18 116.319C18 120.424 20.5777 122.524 25.3512 122.524C31.7477 122.524 32.3205 123.097 32.3205 128.73C32.3205 132.262 32.7979 134.076 34.039 135.222C36.5212 137.418 40.1491 137.99 42.2494 136.367C43.9679 135.031 43.8724 134.84 39.8627 130.448C34.7073 124.911 26.5923 112.786 26.5923 110.686C26.5923 109.827 27.3561 109.158 28.5017 109.158C30.2202 109.158 30.4111 108.49 30.4111 103.526C30.4111 98.4657 30.6975 97.6065 32.9888 95.7925C34.8982 94.265 36.4258 93.8831 38.5261 94.265C42.9177 95.2197 44.1588 97.1291 44.7317 103.717L45.209 109.636L51.1282 109.922C57.7156 110.209 60.0069 112.022 60.0069 116.796C60.0069 121.569 57.7156 123.383 51.1282 123.67L45.209 123.956L44.9226 129.684L44.6362 135.508L50.6508 139.041C63.2529 146.583 71.5588 147.06 83.6835 141.045C96.8584 134.553 110.129 118.419 114.998 103.048C117.003 96.5563 117.194 94.5514 116.525 91.21C113.661 78.5124 101.346 69.6337 88.9344 71.3521C83.3016 72.1159 75.664 76.3166 72.2271 80.6128L69.4584 84.0497L64.2076 78.9898C56.9518 71.8295 48.2641 69.4427 39.0034 72.1159ZM101.155 82.4267C104.019 83.9542 103.637 89.7779 100.582 91.21C95.6173 93.5012 91.3211 87.2957 95.0445 83.1905C96.7629 81.2811 98.4814 80.9946 101.155 82.4267Z" fill="#F9F9F9"/>
</svg>
